<mxfile host="app.diagrams.net" modified="2024-05-28T19:34:35.697Z" agent="Mozilla/5.0 (Windows NT 10.0; Win64; x64) AppleWebKit/537.36 (KHTML, like Gecko) Chrome/125.0.0.0 Safari/537.36" etag="1i7sUxuDxVs8hIFmd5kB" version="24.4.9" type="github">
  <diagram name="Page-1" id="ptyI1DgkGx-0nU6MzZ29">
    <mxGraphModel dx="2019" dy="859" grid="0" gridSize="10" guides="1" tooltips="1" connect="1" arrows="1" fold="1" page="0" pageScale="1" pageWidth="827" pageHeight="1169" math="0" shadow="0">
      <root>
        <mxCell id="0" />
        <mxCell id="1" parent="0" />
        <mxCell id="l48EKnDCiLtibXihTDYW-1" value="&lt;p style=&quot;margin:0px;margin-top:4px;margin-left:10px;text-align:left;&quot;&gt;&lt;b&gt;ibd&lt;/b&gt;&amp;nbsp;Register patient&lt;/p&gt;" style="html=1;shape=mxgraph.sysml.package;labelX=125.6;align=left;spacingLeft=10;html=1;overflow=fill;whiteSpace=wrap;recursiveResize=0;" parent="1" vertex="1">
          <mxGeometry x="-881" y="-356" width="692" height="267" as="geometry" />
        </mxCell>
        <mxCell id="l48EKnDCiLtibXihTDYW-2" style="rounded=0;orthogonalLoop=1;jettySize=auto;html=1;" parent="1" source="l48EKnDCiLtibXihTDYW-5" target="l48EKnDCiLtibXihTDYW-19" edge="1">
          <mxGeometry relative="1" as="geometry" />
        </mxCell>
        <mxCell id="l48EKnDCiLtibXihTDYW-3" value="" style="group" parent="1" vertex="1" connectable="0">
          <mxGeometry x="-814" y="-190" width="120" height="71" as="geometry" />
        </mxCell>
        <mxCell id="l48EKnDCiLtibXihTDYW-4" value="&lt;b&gt;D1: documents&lt;/b&gt;" style="rounded=0;whiteSpace=wrap;html=1;fillColor=none;container=0;" parent="l48EKnDCiLtibXihTDYW-3" vertex="1">
          <mxGeometry y="11" width="120" height="60" as="geometry" />
        </mxCell>
        <mxCell id="l48EKnDCiLtibXihTDYW-5" value="" style="html=1;shape=mxgraph.sysml.port;sysMLPortType=flowN;" parent="l48EKnDCiLtibXihTDYW-3" vertex="1">
          <mxGeometry x="50" width="20" height="20" as="geometry" />
        </mxCell>
        <mxCell id="l48EKnDCiLtibXihTDYW-6" value="Id card and medical history" style="text;html=1;align=center;verticalAlign=middle;resizable=0;points=[];autosize=1;strokeColor=none;fillColor=none;" parent="1" vertex="1">
          <mxGeometry x="-756" y="-226" width="161" height="26" as="geometry" />
        </mxCell>
        <mxCell id="l48EKnDCiLtibXihTDYW-7" value="" style="endArrow=none;html=1;rounded=0;align=center;verticalAlign=top;endFill=0;labelBackgroundColor=none;endSize=2;" parent="1" source="l48EKnDCiLtibXihTDYW-23" target="l48EKnDCiLtibXihTDYW-8" edge="1">
          <mxGeometry relative="1" as="geometry">
            <mxPoint x="-492" y="-294" as="sourcePoint" />
          </mxGeometry>
        </mxCell>
        <mxCell id="l48EKnDCiLtibXihTDYW-8" value="" style="ellipse;html=1;fontSize=11;align=center;fillColor=none;points=[];aspect=fixed;resizable=0;verticalAlign=bottom;labelPosition=center;verticalLabelPosition=top;flipH=1;" parent="1" vertex="1">
          <mxGeometry x="-575" y="-296" width="8" height="8" as="geometry" />
        </mxCell>
        <mxCell id="l48EKnDCiLtibXihTDYW-9" value="" style="endArrow=none;html=1;rounded=0;align=center;verticalAlign=top;endFill=0;labelBackgroundColor=none;endSize=2;" parent="1" source="l48EKnDCiLtibXihTDYW-20" target="l48EKnDCiLtibXihTDYW-10" edge="1">
          <mxGeometry relative="1" as="geometry" />
        </mxCell>
        <mxCell id="l48EKnDCiLtibXihTDYW-10" value="" style="shape=requiredInterface;html=1;fontSize=11;align=center;fillColor=none;points=[];aspect=fixed;resizable=0;verticalAlign=bottom;labelPosition=center;verticalLabelPosition=top;flipH=1;rotation=0;" parent="1" vertex="1">
          <mxGeometry x="-580" y="-297" width="5" height="10" as="geometry" />
        </mxCell>
        <mxCell id="l48EKnDCiLtibXihTDYW-11" value="Validate" style="text;html=1;align=center;verticalAlign=middle;resizable=0;points=[];autosize=1;strokeColor=none;fillColor=none;" parent="1" vertex="1">
          <mxGeometry x="-601" y="-288" width="60" height="26" as="geometry" />
        </mxCell>
        <mxCell id="l48EKnDCiLtibXihTDYW-12" value="" style="endArrow=none;html=1;rounded=0;align=center;verticalAlign=top;endFill=0;labelBackgroundColor=none;endSize=2;" parent="1" source="l48EKnDCiLtibXihTDYW-27" target="l48EKnDCiLtibXihTDYW-13" edge="1">
          <mxGeometry relative="1" as="geometry">
            <mxPoint x="-433" y="-203" as="sourcePoint" />
          </mxGeometry>
        </mxCell>
        <mxCell id="l48EKnDCiLtibXihTDYW-13" value="" style="ellipse;html=1;fontSize=11;align=center;fillColor=none;points=[];aspect=fixed;resizable=0;verticalAlign=bottom;labelPosition=center;verticalLabelPosition=top;flipH=1;" parent="1" vertex="1">
          <mxGeometry x="-390" y="-216" width="8" height="8" as="geometry" />
        </mxCell>
        <mxCell id="l48EKnDCiLtibXihTDYW-14" value="" style="endArrow=none;html=1;rounded=0;align=center;verticalAlign=top;endFill=0;labelBackgroundColor=none;endSize=2;" parent="1" source="l48EKnDCiLtibXihTDYW-24" target="l48EKnDCiLtibXihTDYW-15" edge="1">
          <mxGeometry relative="1" as="geometry" />
        </mxCell>
        <mxCell id="l48EKnDCiLtibXihTDYW-15" value="" style="shape=requiredInterface;html=1;fontSize=11;align=center;fillColor=none;points=[];aspect=fixed;resizable=0;verticalAlign=bottom;labelPosition=center;verticalLabelPosition=top;flipH=1;rotation=90;" parent="1" vertex="1">
          <mxGeometry x="-388.5" y="-226" width="5" height="10" as="geometry" />
        </mxCell>
        <mxCell id="l48EKnDCiLtibXihTDYW-16" value="Create" style="text;html=1;align=center;verticalAlign=middle;resizable=0;points=[];autosize=1;strokeColor=none;fillColor=none;" parent="1" vertex="1">
          <mxGeometry x="-442.5" y="-226" width="54" height="26" as="geometry" />
        </mxCell>
        <mxCell id="l48EKnDCiLtibXihTDYW-17" value="" style="group" parent="1" vertex="1" connectable="0">
          <mxGeometry x="-826" y="-322" width="161" height="69" as="geometry" />
        </mxCell>
        <mxCell id="l48EKnDCiLtibXihTDYW-18" value="&lt;b&gt;Rp1: Register patient&lt;/b&gt;" style="rounded=0;whiteSpace=wrap;html=1;fillColor=none;container=0;" parent="l48EKnDCiLtibXihTDYW-17" vertex="1">
          <mxGeometry width="150" height="60" as="geometry" />
        </mxCell>
        <mxCell id="l48EKnDCiLtibXihTDYW-19" value="" style="html=1;shape=mxgraph.sysml.port;sysMLPortType=flowN;container=0;" parent="l48EKnDCiLtibXihTDYW-17" vertex="1">
          <mxGeometry x="62" y="49" width="20" height="20" as="geometry" />
        </mxCell>
        <mxCell id="l48EKnDCiLtibXihTDYW-20" value="" style="html=1;rounded=0;container=0;" parent="l48EKnDCiLtibXihTDYW-17" vertex="1">
          <mxGeometry x="139" y="20" width="22" height="20" as="geometry" />
        </mxCell>
        <mxCell id="l48EKnDCiLtibXihTDYW-21" value="" style="group" parent="1" vertex="1" connectable="0">
          <mxGeometry x="-478" y="-322" width="178" height="69" as="geometry" />
        </mxCell>
        <mxCell id="l48EKnDCiLtibXihTDYW-22" value="&lt;b&gt;Pc1: Patient controller&lt;/b&gt;" style="rounded=0;whiteSpace=wrap;html=1;fillColor=none;container=0;" parent="l48EKnDCiLtibXihTDYW-21" vertex="1">
          <mxGeometry x="12" width="166" height="60" as="geometry" />
        </mxCell>
        <mxCell id="l48EKnDCiLtibXihTDYW-23" value="" style="html=1;rounded=0;fillColor=default;" parent="l48EKnDCiLtibXihTDYW-21" vertex="1">
          <mxGeometry y="20" width="22" height="20" as="geometry" />
        </mxCell>
        <mxCell id="l48EKnDCiLtibXihTDYW-24" value="" style="html=1;rounded=0;container=0;" parent="l48EKnDCiLtibXihTDYW-21" vertex="1">
          <mxGeometry x="81" y="49" width="22" height="20" as="geometry" />
        </mxCell>
        <mxCell id="l48EKnDCiLtibXihTDYW-25" value="" style="group" parent="1" vertex="1" connectable="0">
          <mxGeometry x="-469" y="-184" width="166" height="69" as="geometry" />
        </mxCell>
        <mxCell id="l48EKnDCiLtibXihTDYW-26" value="&lt;b&gt;P1: Patient&amp;nbsp;&lt;/b&gt;" style="rounded=0;whiteSpace=wrap;html=1;fillColor=none;container=0;" parent="l48EKnDCiLtibXihTDYW-25" vertex="1">
          <mxGeometry y="9" width="166" height="60" as="geometry" />
        </mxCell>
        <mxCell id="l48EKnDCiLtibXihTDYW-27" value="" style="html=1;rounded=0;fillColor=default;" parent="l48EKnDCiLtibXihTDYW-25" vertex="1">
          <mxGeometry x="72" width="22" height="20" as="geometry" />
        </mxCell>
      </root>
    </mxGraphModel>
  </diagram>
</mxfile>
